<svg xmlns="http://www.w3.org/2000/svg" width="2380" height="3368" viewBox="0 0 594 841">
  <defs>
    <style>
      @import url('https://fonts.googleapis.com/css2?family=Inter:wght@400;600;700;900&amp;display=swap');
      text { font-family: 'Inter', 'Segoe UI', Arial, sans-serif; }
      .title { font-size: 18px; font-weight: 900; fill: #fff; }
      .subtitle { font-size: 10px; font-weight: 400; fill: rgba(255,255,255,0.85); }
      .section-title { font-size: 10px; font-weight: 700; fill: #00695C; }
      .subsection { font-size: 10px; font-weight: 700; fill: #00897B; }
      .body { font-size: 10px; font-weight: 400; fill: #333; }
      .body-bold { font-size: 10px; font-weight: 600; fill: #333; }
      .small { font-size: 10px; fill: #555; }
      .small-bold { font-size: 10px; font-weight: 600; fill: #333; }
      .diagram-label { font-size: 3.2px; fill: #333; font-weight: 600; }
      .diagram-small { font-size: 2.8px; fill: #555; }
      .diagram-tiny { font-size: 2.4px; fill: #666; }
      .tbl-header { font-size: 3.2px; font-weight: 700; fill: #fff; }
      .tbl-cell { font-size: 3px; fill: #333; }
      .tbl-cell-bold { font-size: 3px; fill: #00695C; font-weight: 700; }
      .badge { font-size: 10px; font-weight: 700; fill: #fff; }
      .card { fill: #fff; rx: 3; }
    </style>
    <linearGradient id="headerGrad" x1="0" y1="0" x2="1" y2="0">
      <stop offset="0%" stop-color="#004D40"/>
      <stop offset="50%" stop-color="#00695C"/>
      <stop offset="100%" stop-color="#00897B"/>
    </linearGradient>
    <filter id="shadow" x="-2%" y="-2%" width="104%" height="104%">
      <feDropShadow dx="0.3" dy="0.3" stdDeviation="0.6" flood-opacity="0.1"/>
    </filter>
  </defs>

  <rect width="594" height="841" fill="#F5F5F5"/>

  <!-- ====== HEADER (0-72) ====== -->
  <rect x="0" y="0" width="594" height="72" fill="url(#headerGrad)"/>
  <text x="14" y="30" class="title">ToiletGen</text>
  <text x="14" y="46" class="subtitle">Мобильная платформа для поиска и оценки общественных санитарных объектов</text>
  <text x="14" y="62" class="subtitle" style="opacity:0.7">Kotlin | Jetpack Compose | Ktor | PostgreSQL | Kafka | Docker | Yandex MapKit</text>

  <!-- Badges -->
  <rect x="400" y="6" width="60" height="18" rx="6" fill="rgba(255,255,255,0.15)"/>
  <text x="430" y="19" text-anchor="middle" class="badge">Android</text>
  <rect x="466" y="6" width="60" height="18" rx="6" fill="rgba(255,255,255,0.15)"/>
  <text x="496" y="19" text-anchor="middle" class="badge">Backend</text>
  <rect x="532" y="6" width="56" height="18" rx="6" fill="rgba(255,255,255,0.15)"/>
  <text x="560" y="19" text-anchor="middle" class="badge">Docker</text>
  <rect x="400" y="30" width="60" height="18" rx="6" fill="rgba(255,255,255,0.1)"/>
  <text x="430" y="43" text-anchor="middle" class="badge">Clean Arch</text>
  <rect x="466" y="30" width="60" height="18" rx="6" fill="rgba(255,255,255,0.1)"/>
  <text x="496" y="43" text-anchor="middle" class="badge">Kafka</text>
  <rect x="532" y="30" width="56" height="18" rx="6" fill="rgba(255,255,255,0.1)"/>
  <text x="560" y="43" text-anchor="middle" class="badge">JWT</text>


  <!-- ====== LEFT COLUMN (x=8, w=280) ====== -->

  <!-- АКТУАЛЬНОСТЬ (y=80, h=76) -->
  <rect x="8" y="80" width="280" height="76" class="card" filter="url(#shadow)"/>
  <rect x="8" y="80" width="280" height="16" rx="3" fill="#00897B"/>
  <text x="14" y="92" class="section-title" style="fill:#fff">АКТУАЛЬНОСТЬ</text>
  <text x="14" y="110" class="body">Больше половины общественных туалетов в крупных</text>
  <text x="14" y="123" class="body">городах России вообще не отмечены на картах.</text>
  <text x="14" y="136" class="body-bold">Человек ищет вслепую именно тогда, когда это</text>
  <text x="14" y="149" class="body-bold">нужнее всего.</text>

  <!-- ПРОБЛЕМА И ЦЕЛЬ (y=159, h=76) -->
  <rect x="8" y="159" width="280" height="76" class="card" filter="url(#shadow)"/>
  <rect x="8" y="159" width="280" height="16" rx="3" fill="#D32F2F"/>
  <text x="14" y="171" class="section-title" style="fill:#fff">ПРОБЛЕМА</text>
  <text x="14" y="189" class="body">Существующие карты не заточены под санитарные</text>
  <text x="14" y="202" class="body">объекты и не содержат нужной информации.</text>
  <rect x="12" y="212" width="272" height="18" rx="2" fill="#E8F5E9"/>
  <text x="18" y="225" class="body-bold" style="fill:#2E7D32">ЦЕЛЬ: платформа ToiletGen — краудсорсинг + навигация</text>

  <!-- ФУНКЦИОНАЛ (y=238, h=181) -->
  <rect x="8" y="238" width="280" height="181" class="card" filter="url(#shadow)"/>
  <rect x="8" y="238" width="280" height="16" rx="3" fill="#00897B"/>
  <text x="14" y="250" class="section-title" style="fill:#fff">ФУНКЦИОНАЛ ПРИЛОЖЕНИЯ</text>

  <!-- Block 1: Карта -->
  <rect x="12" y="258" width="133" height="68" rx="2" fill="#E0F2F1" stroke="#80CBC4" stroke-width="0.3"/>
  <text x="17" y="272" class="subsection">Карта объектов</text>
  <text x="17" y="286" class="small">Yandex MapKit, кластеризация</text>
  <text x="17" y="299" class="small">Рейтинг на маркере, фильтры</text>
  <text x="17" y="312" class="small">Пешеходная навигация</text>

  <!-- Block 2: Посещения -->
  <rect x="151" y="258" width="133" height="68" rx="2" fill="#E0F2F1" stroke="#80CBC4" stroke-width="0.3"/>
  <text x="156" y="272" class="subsection">Система посещений</text>
  <text x="156" y="286" class="small">Маршруты, автофиксация (25м)</text>
  <text x="156" y="299" class="small">Коллекционные марки, обмен</text>
  <text x="156" y="312" class="small">Годовой отчёт, геопривязка</text>

  <!-- Block 3: Картографирование -->
  <rect x="12" y="330" width="133" height="68" rx="2" fill="#FFF3E0" stroke="#FFB74D" stroke-width="0.3"/>
  <text x="17" y="344" class="subsection" style="fill:#E65100">Картографирование</text>
  <text x="17" y="358" class="small">Краудсорсинг от пользователей</text>
  <text x="17" y="371" class="small">Первичная БД из API Москвы</text>
  <text x="17" y="384" class="small">Отзывы, рейтинги, модерация</text>

  <!-- Block 4: Развлечения -->
  <rect x="151" y="330" width="133" height="68" rx="2" fill="#F3E5F5" stroke="#CE93D8" stroke-width="0.3"/>
  <text x="156" y="344" class="subsection" style="fill:#7B1FA2">Развлечения</text>
  <text x="156" y="358" class="small">Форум, глобальный и приватный чат</text>
  <text x="156" y="371" class="small">Библиотека книг (PDF)</text>
  <text x="156" y="384" class="small">WebSocket real-time</text>

  <!-- SOS -->
  <rect x="12" y="402" width="272" height="14" rx="2" fill="#FFEBEE" stroke="#EF9A9A" stroke-width="0.3"/>
  <text x="18" y="413" class="small-bold" style="fill:#D32F2F">SOS-РЕЖИМ — экстренный поиск ближайшего объекта</text>

  <!-- CLEAN ARCHITECTURE (y=422, h=90) -->
  <rect x="8" y="422" width="280" height="90" class="card" filter="url(#shadow)"/>
  <rect x="8" y="422" width="280" height="16" rx="3" fill="#1976D2"/>
  <text x="14" y="434" class="section-title" style="fill:#fff">CLEAN ARCHITECTURE / SOLID / DRY / KISS</text>

  <!-- Concentric circles -->
  <ellipse cx="66" cy="475" rx="40" ry="24" fill="#E3F2FD" stroke="#1976D2" stroke-width="0.4"/>
  <text x="66" y="494" text-anchor="middle" class="diagram-tiny" style="fill:#1565C0">PRESENTATION</text>
  <ellipse cx="66" cy="473" rx="30" ry="17" fill="#BBDEFB" stroke="#1976D2" stroke-width="0.4"/>
  <text x="66" y="486" text-anchor="middle" class="diagram-tiny" style="fill:#1565C0">DATA</text>
  <ellipse cx="66" cy="471" rx="18" ry="10" fill="#1976D2" stroke="#0D47A1" stroke-width="0.4"/>
  <text x="66" y="474" text-anchor="middle" class="diagram-tiny" style="fill:#fff; font-weight:700">DOMAIN</text>

  <text x="120" y="448" class="diagram-small" style="font-weight:600">Presentation — Compose UI + ViewModel + StateFlow</text>
  <text x="120" y="458" class="diagram-small" style="font-weight:600">Domain — Use Cases + Models + Интерфейсы</text>
  <text x="120" y="468" class="diagram-small" style="font-weight:600">Data — Retrofit + Room + DTO-маппинг</text>
  <text x="120" y="482" class="diagram-small">Dependency Rule: зависимости направлены внутрь.</text>
  <text x="120" y="490" class="diagram-small">Domain не знает о Presentation и Data.</text>
  <text x="120" y="500" class="diagram-small">Jetpack Compose — декларативный UI</text>
  <text x="120" y="508" class="diagram-small">ViewModel — MVI-паттерн, StateFlow → UiState</text>

  <!-- MVVM (y=515, h=58) -->
  <rect x="8" y="515" width="280" height="58" class="card" filter="url(#shadow)"/>
  <rect x="8" y="515" width="280" height="16" rx="3" fill="#00897B"/>
  <text x="14" y="527" class="section-title" style="fill:#fff">MVVM + MVI — однонаправленный поток</text>

  <!-- MVI Flow diagram (stays small) -->
  <rect x="16" y="538" width="38" height="12" rx="2" fill="#E0F2F1" stroke="#00897B" stroke-width="0.4"/>
  <text x="35" y="546" text-anchor="middle" class="diagram-label">View</text>
  <text x="35" y="549" text-anchor="middle" class="diagram-tiny">(Compose)</text>
  <line x1="54" y1="544" x2="68" y2="544" stroke="#00897B" stroke-width="0.4"/>
  <polygon points="68,542.5 71,544 68,545.5" fill="#00897B"/>
  <text x="61" y="541" text-anchor="middle" class="diagram-tiny">Event</text>
  <rect x="72" y="538" width="38" height="12" rx="2" fill="#00897B"/>
  <text x="91" y="546" text-anchor="middle" class="diagram-label" style="fill:#fff">ViewModel</text>
  <line x1="110" y1="544" x2="124" y2="544" stroke="#00897B" stroke-width="0.4"/>
  <polygon points="124,542.5 127,544 124,545.5" fill="#00897B"/>
  <rect x="128" y="538" width="34" height="12" rx="2" fill="#E0F2F1" stroke="#00897B" stroke-width="0.4"/>
  <text x="145" y="546" text-anchor="middle" class="diagram-label">UseCase</text>
  <line x1="162" y1="544" x2="174" y2="544" stroke="#00897B" stroke-width="0.4"/>
  <polygon points="174,542.5 177,544 174,545.5" fill="#00897B"/>
  <rect x="178" y="538" width="30" height="12" rx="2" fill="#E0F2F1" stroke="#00897B" stroke-width="0.4"/>
  <text x="193" y="546" text-anchor="middle" class="diagram-label">Repo</text>
  <path d="M91,550 L91,558 L35,558 L35,551" fill="none" stroke="#FF6F00" stroke-width="0.4"/>
  <polygon points="33.5,551 35,548 36.5,551" fill="#FF6F00"/>
  <text x="63" y="563" text-anchor="middle" class="diagram-tiny" style="fill:#FF6F00">StateFlow&lt;UiState&gt;</text>
  <text x="14" y="570" class="diagram-small" style="fill:#00695C">Однонаправленный поток. UI иммутабелен. Состояние — единый data class.</text>

  <!-- REPO+DI (y=576, h=75) -->
  <rect x="8" y="576" width="136" height="75" class="card" filter="url(#shadow)"/>
  <text x="14" y="590" class="subsection">Repository + SSOT</text>
  <rect x="34" y="598" width="50" height="10" rx="2" fill="#00897B"/>
  <text x="59" y="605" text-anchor="middle" class="diagram-small" style="fill:#fff; font-weight:700">Repository (SSOT)</text>
  <line x1="44" y1="608" x2="30" y2="618" stroke="#666" stroke-width="0.3"/>
  <line x1="74" y1="608" x2="88" y2="618" stroke="#666" stroke-width="0.3"/>
  <rect x="16" y="618" width="30" height="10" rx="2" fill="#E3F2FD" stroke="#1976D2" stroke-width="0.3"/>
  <text x="31" y="624" text-anchor="middle" class="diagram-tiny">Remote API</text>
  <text x="31" y="628" text-anchor="middle" class="diagram-tiny">(Retrofit)</text>
  <rect x="68" y="618" width="30" height="10" rx="2" fill="#FFF3E0" stroke="#FF9800" stroke-width="0.3"/>
  <text x="83" y="624" text-anchor="middle" class="diagram-tiny">Local DB</text>
  <text x="83" y="628" text-anchor="middle" class="diagram-tiny">(Room)</text>
  <rect x="34" y="634" width="50" height="7" rx="1" fill="#E8F5E9"/>
  <text x="59" y="639" text-anchor="middle" class="diagram-tiny" style="fill:#2E7D32; font-weight:600">Single Source of Truth</text>

  <rect x="152" y="576" width="136" height="75" class="card" filter="url(#shadow)"/>
  <text x="158" y="590" class="subsection">DI: Koin</text>
  <text x="158" y="606" class="small">appModule, networkModule</text>
  <text x="158" y="619" class="small">databaseModule</text>
  <text x="158" y="632" class="small">10 feature-модулей</text>
  <text x="158" y="645" class="subsection">Jetpack Compose</text>

  <!-- MODULE GRAPH (y=654, h=115) -->
  <rect x="8" y="654" width="280" height="115" class="card" filter="url(#shadow)"/>
  <rect x="8" y="654" width="280" height="16" rx="3" fill="#1976D2"/>
  <text x="14" y="666" class="section-title" style="fill:#fff">МНОГОМОДУЛЬНАЯ СТРУКТУРА</text>

  <rect x="115" y="678" width="50" height="12" rx="2" fill="#4CAF50"/>
  <text x="140" y="686" text-anchor="middle" class="diagram-label" style="fill:#fff">:app</text>
  <text x="140" y="689" text-anchor="middle" class="diagram-tiny" style="fill:#C8E6C9">Application</text>

  <rect x="12" y="700" width="40" height="10" rx="1.5" fill="#1976D2"/>
  <text x="32" y="707" text-anchor="middle" class="diagram-tiny" style="fill:#fff">:feature:map</text>
  <rect x="56" y="700" width="40" height="10" rx="1.5" fill="#1976D2"/>
  <text x="76" y="707" text-anchor="middle" class="diagram-tiny" style="fill:#fff">:feature:auth</text>
  <rect x="100" y="700" width="42" height="10" rx="1.5" fill="#1976D2"/>
  <text x="121" y="707" text-anchor="middle" class="diagram-tiny" style="fill:#fff">:feature:profile</text>
  <rect x="146" y="700" width="42" height="10" rx="1.5" fill="#1976D2"/>
  <text x="167" y="707" text-anchor="middle" class="diagram-tiny" style="fill:#fff">:feature:details</text>
  <rect x="192" y="700" width="42" height="10" rx="1.5" fill="#1976D2"/>
  <text x="213" y="707" text-anchor="middle" class="diagram-tiny" style="fill:#fff">:feature:stamps</text>
  <rect x="238" y="700" width="40" height="10" rx="1.5" fill="#1976D2"/>
  <text x="258" y="707" text-anchor="middle" class="diagram-tiny" style="fill:#fff">:feature:sos</text>

  <rect x="56" y="714" width="44" height="10" rx="1.5" fill="#1976D2"/>
  <text x="78" y="721" text-anchor="middle" class="diagram-tiny" style="fill:#fff">:feature:achieve.</text>
  <rect x="104" y="714" width="40" height="10" rx="1.5" fill="#1976D2"/>
  <text x="124" y="721" text-anchor="middle" class="diagram-tiny" style="fill:#fff">:feature:report</text>
  <rect x="148" y="714" width="42" height="10" rx="1.5" fill="#1976D2"/>
  <text x="169" y="721" text-anchor="middle" class="diagram-tiny" style="fill:#fff">:feature:entert.</text>
  <rect x="194" y="714" width="40" height="10" rx="1.5" fill="#1976D2"/>
  <text x="214" y="721" text-anchor="middle" class="diagram-tiny" style="fill:#fff">:feature:chat</text>

  <line x1="140" y1="690" x2="32" y2="700" stroke="#999" stroke-width="0.25"/>
  <line x1="140" y1="690" x2="76" y2="700" stroke="#999" stroke-width="0.25"/>
  <line x1="140" y1="690" x2="121" y2="700" stroke="#999" stroke-width="0.25"/>
  <line x1="140" y1="690" x2="167" y2="700" stroke="#999" stroke-width="0.25"/>
  <line x1="140" y1="690" x2="213" y2="700" stroke="#999" stroke-width="0.25"/>
  <line x1="140" y1="690" x2="258" y2="700" stroke="#999" stroke-width="0.25"/>

  <rect x="20" y="736" width="40" height="10" rx="1.5" fill="#757575"/>
  <text x="40" y="743" text-anchor="middle" class="diagram-tiny" style="fill:#fff">:core:ui</text>
  <rect x="64" y="736" width="44" height="10" rx="1.5" fill="#757575"/>
  <text x="86" y="743" text-anchor="middle" class="diagram-tiny" style="fill:#fff">:core:domain</text>
  <rect x="112" y="736" width="44" height="10" rx="1.5" fill="#757575"/>
  <text x="134" y="743" text-anchor="middle" class="diagram-tiny" style="fill:#fff">:core:network</text>
  <rect x="160" y="736" width="46" height="10" rx="1.5" fill="#757575"/>
  <text x="183" y="743" text-anchor="middle" class="diagram-tiny" style="fill:#fff">:core:database</text>
  <rect x="210" y="736" width="46" height="10" rx="1.5" fill="#757575"/>
  <text x="233" y="743" text-anchor="middle" class="diagram-tiny" style="fill:#fff">:core:common</text>

  <line x1="32" y1="710" x2="40" y2="736" stroke="#BBB" stroke-width="0.2"/>
  <line x1="76" y1="710" x2="86" y2="736" stroke="#BBB" stroke-width="0.2"/>
  <line x1="121" y1="710" x2="134" y2="736" stroke="#BBB" stroke-width="0.2"/>
  <line x1="167" y1="710" x2="183" y2="736" stroke="#BBB" stroke-width="0.2"/>
  <line x1="213" y1="710" x2="134" y2="736" stroke="#BBB" stroke-width="0.2"/>

  <rect x="20" y="754" width="6" height="5" rx="1" fill="#4CAF50"/>
  <text x="28" y="758" class="diagram-tiny">App (1)</text>
  <rect x="60" y="754" width="6" height="5" rx="1" fill="#1976D2"/>
  <text x="68" y="758" class="diagram-tiny">Feature (10)</text>
  <rect x="112" y="754" width="6" height="5" rx="1" fill="#757575"/>
  <text x="120" y="758" class="diagram-tiny">Core (5)</text>
  <text x="14" y="766" class="diagram-small" style="fill:#1565C0; font-weight:600">Feature-модули НЕ зависят друг от друга.</text>

  <!-- MAPKIT (y=772, h=30) -->
  <rect x="8" y="772" width="280" height="30" class="card" filter="url(#shadow)"/>
  <text x="14" y="790" class="subsection">Yandex MapKit SDK</text>
  <text x="14" y="798" class="diagram-small">MapView → PlacemarkCollection → PedestrianRouter → CameraListener → UserLocationLayer → Геозона (25м)</text>


  <!-- ====== RIGHT COLUMN (x=296, w=290) ====== -->

  <!-- BACKEND HEADER (y=80, h=16) -->
  <rect x="296" y="80" width="290" height="16" rx="3" fill="#00695C"/>
  <text x="441" y="92" text-anchor="middle" class="section-title" style="fill:#fff">АРХИТЕКТУРА BACKEND — DDD / EDA / Ktor + Kotlin</text>

  <!-- INFRA DIAGRAM (y=98, h=145) -->
  <rect x="296" y="98" width="290" height="145" class="card" filter="url(#shadow)"/>

  <rect x="412" y="102" width="48" height="12" rx="6" fill="#E3F2FD" stroke="#1976D2" stroke-width="0.4"/>
  <text x="436" y="110" text-anchor="middle" class="diagram-tiny" style="font-weight:600">Пользователь</text>
  <line x1="436" y1="114" x2="436" y2="120" stroke="#1976D2" stroke-width="0.4"/>
  <polygon points="434.5,120 436,123 437.5,120" fill="#1976D2"/>
  <text x="444" y="118" class="diagram-tiny" style="fill:#1976D2">HTTPS</text>

  <rect x="396" y="123" width="80" height="14" rx="3" fill="#FF6F00"/>
  <text x="436" y="131" text-anchor="middle" class="diagram-label" style="fill:#fff">API Gateway</text>
  <text x="436" y="135" text-anchor="middle" class="diagram-tiny" style="fill:#FFE0B2">:8080 Ktor</text>

  <line x1="406" y1="137" x2="330" y2="147" stroke="#666" stroke-width="0.3"/>
  <line x1="421" y1="137" x2="392" y2="147" stroke="#666" stroke-width="0.3"/>
  <line x1="451" y1="137" x2="462" y2="147" stroke="#666" stroke-width="0.3"/>
  <line x1="466" y1="137" x2="530" y2="147" stroke="#666" stroke-width="0.3"/>

  <rect x="304" y="147" width="52" height="20" rx="2" fill="#1976D2"/>
  <text x="330" y="155" text-anchor="middle" class="diagram-label" style="fill:#fff">Identity</text>
  <text x="330" y="159" text-anchor="middle" class="diagram-tiny" style="fill:#BBDEFB">:8081</text>
  <text x="330" y="163" text-anchor="middle" class="diagram-tiny" style="fill:#90CAF9">Auth, JWT</text>

  <rect x="362" y="147" width="52" height="20" rx="2" fill="#00897B"/>
  <text x="388" y="155" text-anchor="middle" class="diagram-label" style="fill:#fff">Toilet</text>
  <text x="388" y="159" text-anchor="middle" class="diagram-tiny" style="fill:#B2DFDB">:8082</text>
  <text x="388" y="163" text-anchor="middle" class="diagram-tiny" style="fill:#80CBC4">Reviews, Chat</text>

  <rect x="420" y="147" width="52" height="20" rx="2" fill="#D32F2F"/>
  <text x="446" y="155" text-anchor="middle" class="diagram-label" style="fill:#fff">SOS</text>
  <text x="446" y="159" text-anchor="middle" class="diagram-tiny" style="fill:#FFCDD2">:8083</text>

  <rect x="478" y="147" width="52" height="20" rx="2" fill="#7B1FA2"/>
  <text x="504" y="155" text-anchor="middle" class="diagram-label" style="fill:#fff">Gamification</text>
  <text x="504" y="159" text-anchor="middle" class="diagram-tiny" style="fill:#E1BEE7">:8084</text>

  <line x1="330" y1="167" x2="330" y2="176" stroke="#666" stroke-width="0.3"/>
  <line x1="388" y1="167" x2="388" y2="176" stroke="#666" stroke-width="0.3"/>
  <line x1="446" y1="167" x2="446" y2="176" stroke="#666" stroke-width="0.3"/>
  <line x1="504" y1="167" x2="504" y2="176" stroke="#666" stroke-width="0.3"/>

  <rect x="308" y="176" width="44" height="10" rx="2" fill="#FFF9C4" stroke="#FBC02D" stroke-width="0.3"/>
  <text x="330" y="183" text-anchor="middle" class="diagram-tiny" style="font-weight:600">identity_db</text>
  <rect x="366" y="176" width="44" height="10" rx="2" fill="#FFF9C4" stroke="#FBC02D" stroke-width="0.3"/>
  <text x="388" y="183" text-anchor="middle" class="diagram-tiny" style="font-weight:600">toilet_db</text>
  <rect x="424" y="176" width="44" height="10" rx="2" fill="#FFF9C4" stroke="#FBC02D" stroke-width="0.3"/>
  <text x="446" y="183" text-anchor="middle" class="diagram-tiny" style="font-weight:600">sos_db</text>
  <rect x="482" y="176" width="44" height="10" rx="2" fill="#FFF9C4" stroke="#FBC02D" stroke-width="0.3"/>
  <text x="504" y="183" text-anchor="middle" class="diagram-tiny" style="font-weight:600">gamif._db</text>

  <text x="420" y="194" text-anchor="middle" class="diagram-tiny" style="fill:#F57F17; font-weight:600">PostgreSQL 16 — DB per Microservice</text>

  <rect x="540" y="102" width="42" height="72" rx="3" fill="#263238" stroke="#455A64" stroke-width="0.3"/>
  <text x="561" y="112" text-anchor="middle" class="diagram-tiny" style="fill:#fff; font-weight:700">Apache Kafka</text>
  <text x="561" y="120" text-anchor="middle" class="diagram-tiny" style="fill:#90A4AE">Асинхронные</text>
  <text x="561" y="125" text-anchor="middle" class="diagram-tiny" style="fill:#90A4AE">события</text>
  <text x="561" y="133" text-anchor="middle" class="diagram-tiny" style="fill:#FFB74D">user.registered</text>
  <text x="561" y="138" text-anchor="middle" class="diagram-tiny" style="fill:#FFB74D">toilet.created</text>
  <line x1="356" y1="153" x2="540" y2="130" stroke="#FFB74D" stroke-width="0.3" stroke-dasharray="1,1"/>

  <rect x="540" y="178" width="42" height="14" rx="3" fill="#D32F2F"/>
  <text x="561" y="187" text-anchor="middle" class="diagram-tiny" style="fill:#fff; font-weight:700">Redis Cache</text>

  <text x="302" y="205" class="diagram-small" style="fill:#333; font-weight:600">HTTP (Gateway) | Kafka (EDA) | Redis (Cache)</text>

  <!-- Shared+Outbox+Layered (y=210, h=32) -->
  <rect x="302" y="210" width="90" height="28" rx="2" fill="#ECEFF1" stroke="#90A4AE" stroke-width="0.3"/>
  <text x="308" y="220" class="diagram-small" style="font-weight:600">Shared-модуль</text>
  <text x="308" y="226" class="diagram-small">security, messaging, events</text>
  <text x="308" y="232" class="diagram-small">Подключён ко всем сервисам</text>

  <rect x="396" y="210" width="92" height="28" rx="2" fill="#FFF3E0" stroke="#FF9800" stroke-width="0.3"/>
  <text x="402" y="220" class="diagram-small" style="fill:#E65100; font-weight:600">Transactional Outbox</text>
  <text x="402" y="226" class="diagram-small">1 транзакция → data + outbox</text>
  <text x="402" y="232" class="diagram-small">Poller → Kafka → mark sent</text>

  <rect x="492" y="210" width="90" height="28" rx="2" fill="#E8EAF6" stroke="#7986CB" stroke-width="0.3"/>
  <text x="498" y="220" class="diagram-small" style="fill:#283593; font-weight:600">Слоистая архитектура</text>
  <rect x="498" y="223" width="78" height="4" rx="1" fill="#C5CAE9"/>
  <text x="537" y="226.5" text-anchor="middle" class="diagram-tiny" style="fill:#1A237E">Infrastructure</text>
  <rect x="501" y="228" width="72" height="4" rx="1" fill="#9FA8DA"/>
  <text x="537" y="231.5" text-anchor="middle" class="diagram-tiny" style="fill:#fff">Application</text>
  <rect x="504" y="233" width="66" height="4" rx="1" fill="#5C6BC0"/>
  <text x="537" y="236.5" text-anchor="middle" class="diagram-tiny" style="fill:#fff">Domain</text>

  <!-- AUTH (y=246, h=110) -->
  <rect x="296" y="246" width="290" height="110" class="card" filter="url(#shadow)"/>
  <rect x="296" y="246" width="290" height="16" rx="3" fill="#D32F2F"/>
  <text x="302" y="258" class="section-title" style="fill:#fff">АУТЕНТИФИКАЦИЯ И БЕЗОПАСНОСТЬ</text>

  <!-- Auth flow (diagram) -->
  <rect x="304" y="268" width="40" height="12" rx="2" fill="#E3F2FD" stroke="#1976D2" stroke-width="0.3"/>
  <text x="324" y="276" text-anchor="middle" class="diagram-tiny" style="font-weight:600">Клиент</text>
  <line x1="344" y1="274" x2="362" y2="274" stroke="#333" stroke-width="0.3"/>
  <polygon points="362,272.5 365,274 362,275.5" fill="#333"/>
  <rect x="366" y="268" width="54" height="12" rx="2" fill="#1976D2"/>
  <text x="393" y="276" text-anchor="middle" class="diagram-tiny" style="fill:#fff; font-weight:600">Identity Service</text>
  <line x1="420" y1="274" x2="434" y2="274" stroke="#333" stroke-width="0.3"/>
  <rect x="435" y="268" width="50" height="12" rx="2" fill="#FFF9C4" stroke="#FBC02D" stroke-width="0.3"/>
  <text x="460" y="276" text-anchor="middle" class="diagram-tiny" style="font-weight:600">bcrypt(pass, salt)</text>
  <line x1="393" y1="280" x2="344" y2="286" stroke="#4CAF50" stroke-width="0.3"/>
  <polygon points="344,284.5 341,286 344,287.5" fill="#4CAF50"/>
  <text x="369" y="284" text-anchor="middle" class="diagram-tiny" style="fill:#4CAF50">{accessToken, refreshToken}</text>
  <rect x="304" y="290" width="180" height="10" rx="2" fill="#E8F5E9" stroke="#4CAF50" stroke-width="0.3"/>
  <text x="310" y="297" class="diagram-small" style="fill:#2E7D32">Bearer token → Gateway → JWT verify → Сервис</text>

  <!-- Security points -->
  <text x="302" y="314" class="small-bold" style="fill:#D32F2F">Меры безопасности:</text>
  <text x="302" y="327" class="small">- Пароли хранятся в солёных хэшах (bcrypt)</text>
  <text x="302" y="340" class="small">- JWT access + refresh, данные изолированы</text>
  <text x="302" y="353" class="small">- ORM Exposed исключает SQL-инъекции</text>

  <!-- FRAMEWORK TABLE (y=359, h=72) -->
  <rect x="296" y="359" width="290" height="72" class="card" filter="url(#shadow)"/>
  <rect x="296" y="359" width="290" height="16" rx="3" fill="#00695C"/>
  <text x="302" y="371" class="section-title" style="fill:#fff">СРАВНЕНИЕ BACKEND-ФРЕЙМВОРКОВ</text>

  <rect x="302" y="379" width="46" height="7" fill="#00897B"/>
  <rect x="348" y="379" width="48" height="7" fill="#004D40"/>
  <rect x="396" y="379" width="48" height="7" fill="#546E7A"/>
  <rect x="444" y="379" width="46" height="7" fill="#546E7A"/>
  <rect x="490" y="379" width="42" height="7" fill="#546E7A"/>
  <rect x="532" y="379" width="42" height="7" fill="#546E7A"/>
  <text x="325" y="384" text-anchor="middle" class="tbl-header">Критерий</text>
  <text x="372" y="384" text-anchor="middle" class="tbl-header">Ktor (выбран)</text>
  <text x="420" y="384" text-anchor="middle" class="tbl-header">Spring Boot</text>
  <text x="467" y="384" text-anchor="middle" class="tbl-header">Express.js</text>
  <text x="511" y="384" text-anchor="middle" class="tbl-header">Django</text>
  <text x="553" y="384" text-anchor="middle" class="tbl-header">FastAPI</text>

  <rect x="302" y="386" width="46" height="6" fill="#F5F5F5"/><rect x="348" y="386" width="48" height="6" fill="#E0F2F1"/><rect x="396" y="386" width="48" height="6" fill="#F5F5F5"/><rect x="444" y="386" width="46" height="6" fill="#F5F5F5"/><rect x="490" y="386" width="42" height="6" fill="#F5F5F5"/><rect x="532" y="386" width="42" height="6" fill="#F5F5F5"/>
  <text x="325" y="391" text-anchor="middle" class="tbl-cell">Язык</text><text x="372" y="391" text-anchor="middle" class="tbl-cell-bold">Kotlin</text><text x="420" y="391" text-anchor="middle" class="tbl-cell">Java/Kotlin</text><text x="467" y="391" text-anchor="middle" class="tbl-cell">JavaScript</text><text x="511" y="391" text-anchor="middle" class="tbl-cell">Python</text><text x="553" y="391" text-anchor="middle" class="tbl-cell">Python</text>

  <rect x="302" y="392" width="46" height="6" fill="#FAFAFA"/><rect x="348" y="392" width="48" height="6" fill="#E0F2F1"/><rect x="396" y="392" width="48" height="6" fill="#FAFAFA"/><rect x="444" y="392" width="46" height="6" fill="#FAFAFA"/><rect x="490" y="392" width="42" height="6" fill="#FAFAFA"/><rect x="532" y="392" width="42" height="6" fill="#FAFAFA"/>
  <text x="325" y="397" text-anchor="middle" class="tbl-cell">Async</text><text x="372" y="397" text-anchor="middle" class="tbl-cell-bold">Корутины</text><text x="420" y="397" text-anchor="middle" class="tbl-cell">WebFlux</text><text x="467" y="397" text-anchor="middle" class="tbl-cell">Event loop</text><text x="511" y="397" text-anchor="middle" class="tbl-cell">WSGI</text><text x="553" y="397" text-anchor="middle" class="tbl-cell">ASGI</text>

  <rect x="302" y="398" width="46" height="6" fill="#F5F5F5"/><rect x="348" y="398" width="48" height="6" fill="#E0F2F1"/><rect x="396" y="398" width="48" height="6" fill="#F5F5F5"/><rect x="444" y="398" width="46" height="6" fill="#F5F5F5"/><rect x="490" y="398" width="42" height="6" fill="#F5F5F5"/><rect x="532" y="398" width="42" height="6" fill="#F5F5F5"/>
  <text x="325" y="403" text-anchor="middle" class="tbl-cell">Старт</text><text x="372" y="403" text-anchor="middle" class="tbl-cell-bold">~1 сек</text><text x="420" y="403" text-anchor="middle" class="tbl-cell">~8-15 сек</text><text x="467" y="403" text-anchor="middle" class="tbl-cell">~0.5 сек</text><text x="511" y="403" text-anchor="middle" class="tbl-cell">~2 сек</text><text x="553" y="403" text-anchor="middle" class="tbl-cell">~1 сек</text>

  <rect x="302" y="404" width="46" height="6" fill="#FAFAFA"/><rect x="348" y="404" width="48" height="6" fill="#E0F2F1"/><rect x="396" y="404" width="48" height="6" fill="#FAFAFA"/><rect x="444" y="404" width="46" height="6" fill="#FAFAFA"/><rect x="490" y="404" width="42" height="6" fill="#FAFAFA"/><rect x="532" y="404" width="42" height="6" fill="#FAFAFA"/>
  <text x="325" y="409" text-anchor="middle" class="tbl-cell">RAM</text><text x="372" y="409" text-anchor="middle" class="tbl-cell-bold">~50 МБ</text><text x="420" y="409" text-anchor="middle" class="tbl-cell">~300 МБ</text><text x="467" y="409" text-anchor="middle" class="tbl-cell">~30 МБ</text><text x="511" y="409" text-anchor="middle" class="tbl-cell">~80 МБ</text><text x="553" y="409" text-anchor="middle" class="tbl-cell">~40 МБ</text>

  <rect x="302" y="410" width="46" height="6" fill="#F5F5F5"/><rect x="348" y="410" width="48" height="6" fill="#E0F2F1"/><rect x="396" y="410" width="48" height="6" fill="#F5F5F5"/><rect x="444" y="410" width="46" height="6" fill="#F5F5F5"/><rect x="490" y="410" width="42" height="6" fill="#F5F5F5"/><rect x="532" y="410" width="42" height="6" fill="#F5F5F5"/>
  <text x="325" y="415" text-anchor="middle" class="tbl-cell">Общий язык</text><text x="372" y="415" text-anchor="middle" class="tbl-cell-bold">Да</text><text x="420" y="415" text-anchor="middle" class="tbl-cell">Частично</text><text x="467" y="415" text-anchor="middle" class="tbl-cell">Нет</text><text x="511" y="415" text-anchor="middle" class="tbl-cell">Нет</text><text x="553" y="415" text-anchor="middle" class="tbl-cell">Нет</text>

  <rect x="302" y="416" width="46" height="6" fill="#FAFAFA"/><rect x="348" y="416" width="48" height="6" fill="#E0F2F1"/><rect x="396" y="416" width="48" height="6" fill="#FAFAFA"/><rect x="444" y="416" width="46" height="6" fill="#FAFAFA"/><rect x="490" y="416" width="42" height="6" fill="#FAFAFA"/><rect x="532" y="416" width="42" height="6" fill="#FAFAFA"/>
  <text x="325" y="421" text-anchor="middle" class="tbl-cell">Типы</text><text x="372" y="421" text-anchor="middle" class="tbl-cell-bold">Полная</text><text x="420" y="421" text-anchor="middle" class="tbl-cell">Полная</text><text x="467" y="421" text-anchor="middle" class="tbl-cell">Нет</text><text x="511" y="421" text-anchor="middle" class="tbl-cell">Частичная</text><text x="553" y="421" text-anchor="middle" class="tbl-cell">Частичная</text>

  <text x="302" y="429" class="body-bold" style="fill:#00695C">Ktor — единый Kotlin, нативные корутины, минимум overhead</text>

  <!-- REST+DI (y=434, h=58) -->
  <rect x="296" y="434" width="142" height="58" class="card" filter="url(#shadow)"/>
  <text x="302" y="448" class="subsection">REST API (Ричардсон L2)</text>
  <text x="302" y="462" class="small">GET/POST/PUT/DELETE</text>
  <text x="302" y="475" class="small">WebSocket real-time чат</text>
  <text x="302" y="488" class="small">Ресурсные URL, коды ответов</text>

  <rect x="444" y="434" width="142" height="58" class="card" filter="url(#shadow)"/>
  <text x="450" y="448" class="subsection">DI: Koin (Backend)</text>
  <text x="450" y="462" class="small">securityModule — JWT, bcrypt</text>
  <text x="450" y="475" class="small">messagingModule — Kafka</text>
  <text x="450" y="488" class="small">Единый DI клиент+сервер</text>

  <!-- DATABASE (y=495, h=160) -->
  <rect x="296" y="495" width="290" height="160" class="card" filter="url(#shadow)"/>
  <rect x="296" y="495" width="290" height="16" rx="3" fill="#F57F17"/>
  <text x="302" y="507" class="section-title" style="fill:#fff">БАЗА ДАННЫХ — PostgreSQL 16 / ORM Exposed</text>
  <text x="302" y="524" class="small-bold" style="fill:#F57F17">3НФ (усиленная), намеренная денормализация для производительности</text>

  <!-- ER Diagram (diagram text stays small) -->
  <rect x="302" y="532" width="58" height="62" rx="2" fill="#FFF9C4" stroke="#FBC02D" stroke-width="0.4"/>
  <rect x="302" y="532" width="58" height="7" rx="2" fill="#FBC02D"/>
  <text x="331" y="537.5" text-anchor="middle" class="diagram-tiny" style="fill:#fff; font-weight:700">toilets</text>
  <text x="306" y="544" class="diagram-tiny">PK id, owner_id</text>
  <text x="306" y="549" class="diagram-tiny">name, type</text>
  <text x="306" y="554" class="diagram-tiny">lat, lng, is_paid</text>
  <text x="306" y="559" class="diagram-tiny">has_toilet_paper</text>
  <text x="306" y="564" class="diagram-tiny" style="fill:#D32F2F">avg_rating (денорм.)</text>
  <text x="306" y="569" class="diagram-tiny" style="fill:#D32F2F">review_count (денорм.)</text>

  <rect x="366" y="532" width="54" height="42" rx="2" fill="#E3F2FD" stroke="#1976D2" stroke-width="0.4"/>
  <rect x="366" y="532" width="54" height="7" rx="2" fill="#1976D2"/>
  <text x="393" y="537.5" text-anchor="middle" class="diagram-tiny" style="fill:#fff; font-weight:700">reviews</text>
  <text x="370" y="544" class="diagram-tiny">PK id, FK toilet_id</text>
  <text x="370" y="549" class="diagram-tiny">FK user_id, rating</text>
  <text x="370" y="554" class="diagram-tiny">cleanliness, comment</text>
  <line x1="360" y1="550" x2="366" y2="550" stroke="#1976D2" stroke-width="0.4"/>
  <text x="363" y="548" text-anchor="middle" class="diagram-tiny" style="fill:#1976D2">1:N</text>

  <rect x="366" y="578" width="54" height="16" rx="2" fill="#E8F5E9" stroke="#4CAF50" stroke-width="0.4"/>
  <rect x="366" y="578" width="54" height="7" rx="2" fill="#4CAF50"/>
  <text x="393" y="583.5" text-anchor="middle" class="diagram-tiny" style="fill:#fff; font-weight:700">visits</text>
  <text x="370" y="591" class="diagram-tiny">FK toilet_id, user_id</text>

  <rect x="426" y="532" width="54" height="25" rx="2" fill="#F3E5F5" stroke="#7B1FA2" stroke-width="0.4"/>
  <rect x="426" y="532" width="54" height="7" rx="2" fill="#7B1FA2"/>
  <text x="453" y="537.5" text-anchor="middle" class="diagram-tiny" style="fill:#fff; font-weight:700">user_stamps</text>
  <text x="430" y="544" class="diagram-tiny">FK toilet_id, user_id</text>
  <text x="430" y="549" class="diagram-tiny">obtained_at</text>

  <rect x="426" y="561" width="54" height="25" rx="2" fill="#FCE4EC" stroke="#E91E63" stroke-width="0.4"/>
  <rect x="426" y="561" width="54" height="7" rx="2" fill="#E91E63"/>
  <text x="453" y="566.5" text-anchor="middle" class="diagram-tiny" style="fill:#fff; font-weight:700">stamp_trades</text>
  <text x="430" y="574" class="diagram-tiny">sender/receiver ids</text>
  <text x="430" y="579" class="diagram-tiny">status, created_at</text>
  <line x1="453" y1="557" x2="453" y2="561" stroke="#E91E63" stroke-width="0.3"/>

  <rect x="486" y="532" width="76" height="50" rx="2" fill="#ECEFF1" stroke="#90A4AE" stroke-width="0.4"/>
  <rect x="486" y="532" width="76" height="7" rx="2" fill="#607D8B"/>
  <text x="524" y="537.5" text-anchor="middle" class="diagram-tiny" style="fill:#fff; font-weight:700">Чат + Форум</text>
  <text x="490" y="544" class="diagram-tiny">chat_messages</text>
  <text x="490" y="549" class="diagram-tiny" style="fill:#D32F2F">sender_username (ден.)</text>
  <text x="490" y="554" class="diagram-tiny">private_messages</text>
  <text x="490" y="559" class="diagram-tiny">forum_threads</text>
  <text x="490" y="564" class="diagram-tiny" style="fill:#D32F2F">reply_count (ден.)</text>
  <text x="490" y="569" class="diagram-tiny">forum_replies</text>
  <text x="490" y="574" class="diagram-tiny">books, reports, outbox</text>

  <text x="302" y="615" class="small-bold" style="fill:#F57F17">ORM Exposed — типобезопасные запросы на уровне компиляции</text>
  <text x="302" y="628" class="small" style="fill:#D32F2F">Денормализация: avg_rating, review_count — исключает JOIN+AVG</text>
  <text x="302" y="641" class="small">Первичная БД из data.mos.ru (открытые данные Москвы)</text>

  <!-- INFRASTRUCTURE (y=660, h=70) -->
  <rect x="296" y="660" width="142" height="70" class="card" filter="url(#shadow)"/>
  <rect x="296" y="660" width="142" height="16" rx="3" fill="#263238"/>
  <text x="302" y="672" class="section-title" style="fill:#fff">ИНФРАСТРУКТУРА</text>
  <rect x="302" y="682" width="130" height="40" rx="2" fill="#1565C0"/>
  <text x="306" y="693" class="diagram-tiny" style="fill:#fff; font-weight:700">Docker Compose — 8 контейнеров:</text>
  <text x="306" y="700" class="diagram-tiny" style="fill:#BBDEFB">gateway | identity | toilet | sos | gamification</text>
  <text x="306" y="707" class="diagram-tiny" style="fill:#BBDEFB">PostgreSQL | Kafka | Redis</text>
  <text x="306" y="714" class="diagram-tiny" style="fill:#BBDEFB">Каждый сервис в изолированном контейнере</text>

  <!-- HACK+PLANS (y=660, right side) -->
  <rect x="444" y="660" width="142" height="32" class="card" filter="url(#shadow)"/>
  <rect x="444" y="660" width="142" height="16" rx="3" fill="#D32F2F"/>
  <text x="450" y="672" class="section-title" style="fill:#fff">УСТОЙЧИВОСТЬ К АТАКАМ</text>
  <text x="450" y="685" class="diagram-small">Реальные попытки взлома. Архитектура выдержала.</text>

  <rect x="444" y="696" width="142" height="34" class="card" filter="url(#shadow)"/>
  <rect x="444" y="696" width="142" height="16" rx="3" fill="#00897B"/>
  <text x="450" y="708" class="section-title" style="fill:#fff">ПЛАНЫ РАЗВИТИЯ</text>
  <text x="450" y="722" class="diagram-small">Защита диплома, публикация в RuStore</text>

  <!-- ====== FOOTER (808-841) ====== -->
  <rect x="0" y="808" width="594" height="33" fill="url(#headerGrad)"/>
  <text x="297" y="822" text-anchor="middle" class="subtitle" style="fill:rgba(255,255,255,0.9); font-weight:600">ToiletGen — Kotlin / Compose / Clean Arch / Ktor / PostgreSQL / Kafka / Docker</text>
  <text x="297" y="836" text-anchor="middle" class="subtitle" style="fill:rgba(255,255,255,0.5)">DDD / EDA / MVVM / SOLID / REST L2 / JWT / Transactional Outbox / Koin DI</text>

</svg>
